# xmcd
#
# Track frame offsets:
#	150
#	16667
#	32202
#	49768
#	63501
#	83330
#	97717
#	113867
#	128133
#	143046
#	159905
#	174232
#	186077
#	205394
#	220123
#	237962
#	252952
#	271399
#
# Disc length: 3871 seconds
#
# Revision: 0
# Processed by: cddbd v1.5.2PL0 Copyright (c) Steve Scherf et al.
# Submitted via: EasyCDDAExtractor 12.0.1.1
#
DISCID=e70f1d12
DTITLE=Various Artist - All Woman 4
DYEAR=2009
DGENRE=Country
TTITLE0=Kate Perry - Hot'n'cold
TTITLE1=Lily Allen - The Fear
TTITLE2=Leona Lewis - Better In Time
TTITLE3=Christina Aguilera - Keeps Getting Better
TTITLE4=Jordin Sparks/Chris Brown - No Air
TTITLE5=Ida Maria - I Like You So Much Better When You're Naked
TTITLE6=Anne Linnet - Kan Jeg Gøre Noget
TTITLE7=Alicia Keys - Teenage Love Affair
TTITLE8=Ida Aida - En Klassiker
TTITLE9=Kira - Riders Of The Freeway
TTITLE10=Nneka - Heartbeat
TTITLE11=Marei Key Band - Går Hun Ikke Meget For Sig Selv
TTITLE12=Ayoe Angelica - Everybody Loves You
TTITLE13=MariaMatilde Band - Mars Og Venus
TTITLE14=Kleerup/Marit Bergman - 3Am
TTITLE15=Aura - Song For Sophie
TTITLE16=Tina Dickow - A New Situation
TTITLE17=Medina - Kun For Mig (Remix)
EXTD=
EXTT0=
EXTT1=
EXTT2=
EXTT3=
EXTT4=
EXTT5=
EXTT6=
EXTT7=
EXTT8=
EXTT9=
EXTT10=
EXTT11=
EXTT12=
EXTT13=
EXTT14=
EXTT15=
EXTT16=
EXTT17=
PLAYORDER=
